<svg width="354" height="209" viewBox="0 0 354 209" fill="none" xmlns="http://www.w3.org/2000/svg">
<g clip-path="url(#clip0_439_2975)">
<path d="M329.624 0.652344H24.2446C11.1202 0.652344 0.480713 10.5802 0.480713 22.8267V186.458C0.480713 198.705 11.1202 208.633 24.2446 208.633H329.624C342.749 208.633 353.388 198.705 353.388 186.458V22.8267C353.388 10.5802 342.749 0.652344 329.624 0.652344Z" fill="url(#paint0_linear_439_2975)"/>
<path d="M294.825 188.141C305.107 188.141 313.443 180.363 313.443 170.768C313.443 161.174 305.107 153.396 294.825 153.396C284.543 153.396 276.207 161.174 276.207 170.768C276.207 180.363 284.543 188.141 294.825 188.141Z" fill="#BC0C24"/>
<path d="M319.398 188.141C329.68 188.141 338.015 180.363 338.015 170.768C338.015 161.174 329.68 153.396 319.398 153.396C309.115 153.396 300.78 161.174 300.78 170.768C300.78 180.363 309.115 188.141 319.398 188.141Z" fill="#F09625"/>
<path d="M300.78 170.769C300.78 175.968 303.238 180.617 307.117 183.798C310.996 180.617 313.454 175.968 313.454 170.769C313.454 165.569 310.996 160.92 307.117 157.739C303.238 160.92 300.78 165.569 300.78 170.769Z" fill="#E76230"/>
<path d="M24.292 123.018V122.637C24.292 122.025 24.484 121.523 24.8682 121.133C25.2588 120.742 25.7861 120.547 26.4502 120.547C27.1208 120.547 27.6514 120.742 28.042 121.133C28.4326 121.523 28.6279 122.025 28.6279 122.637V123.018C28.6279 123.623 28.4326 124.121 28.042 124.512C27.6579 124.896 27.1305 125.088 26.46 125.088C25.7959 125.088 25.2686 124.896 24.8779 124.512C24.4873 124.121 24.292 123.623 24.292 123.018ZM31.2842 123.018V122.637C31.2842 122.025 31.4762 121.523 31.8604 121.133C32.251 120.742 32.7783 120.547 33.4424 120.547C34.113 120.547 34.6436 120.742 35.0342 121.133C35.4248 121.523 35.6201 122.025 35.6201 122.637V123.018C35.6201 123.623 35.4248 124.121 35.0342 124.512C34.6501 124.896 34.1227 125.088 33.4521 125.088C32.7881 125.088 32.2607 124.896 31.8701 124.512C31.4795 124.121 31.2842 123.623 31.2842 123.018ZM38.2764 123.018V122.637C38.2764 122.025 38.4684 121.523 38.8525 121.133C39.2432 120.742 39.7705 120.547 40.4346 120.547C41.1051 120.547 41.6357 120.742 42.0264 121.133C42.417 121.523 42.6123 122.025 42.6123 122.637V123.018C42.6123 123.623 42.417 124.121 42.0264 124.512C41.6423 124.896 41.1149 125.088 40.4443 125.088C39.7803 125.088 39.2529 124.896 38.8623 124.512C38.4717 124.121 38.2764 123.623 38.2764 123.018ZM45.2686 123.018V122.637C45.2686 122.025 45.4606 121.523 45.8447 121.133C46.2354 120.742 46.7627 120.547 47.4268 120.547C48.0973 120.547 48.6279 120.742 49.0186 121.133C49.4092 121.523 49.6045 122.025 49.6045 122.637V123.018C49.6045 123.623 49.4092 124.121 49.0186 124.512C48.6344 124.896 48.1071 125.088 47.4365 125.088C46.7725 125.088 46.2451 124.896 45.8545 124.512C45.4639 124.121 45.2686 123.623 45.2686 123.018ZM62.2217 123.018V122.637C62.2217 122.025 62.4137 121.523 62.7979 121.133C63.1885 120.742 63.7158 120.547 64.3799 120.547C65.0505 120.547 65.5811 120.742 65.9717 121.133C66.3623 121.523 66.5576 122.025 66.5576 122.637V123.018C66.5576 123.623 66.3623 124.121 65.9717 124.512C65.5876 124.896 65.0602 125.088 64.3896 125.088C63.7256 125.088 63.1982 124.896 62.8076 124.512C62.417 124.121 62.2217 123.623 62.2217 123.018ZM69.2139 123.018V122.637C69.2139 122.025 69.4059 121.523 69.79 121.133C70.1807 120.742 70.708 120.547 71.3721 120.547C72.0426 120.547 72.5732 120.742 72.9639 121.133C73.3545 121.523 73.5498 122.025 73.5498 122.637V123.018C73.5498 123.623 73.3545 124.121 72.9639 124.512C72.5798 124.896 72.0524 125.088 71.3818 125.088C70.7178 125.088 70.1904 124.896 69.7998 124.512C69.4092 124.121 69.2139 123.623 69.2139 123.018ZM76.2061 123.018V122.637C76.2061 122.025 76.3981 121.523 76.7822 121.133C77.1729 120.742 77.7002 120.547 78.3643 120.547C79.0348 120.547 79.5654 120.742 79.9561 121.133C80.3467 121.523 80.542 122.025 80.542 122.637V123.018C80.542 123.623 80.3467 124.121 79.9561 124.512C79.5719 124.896 79.0446 125.088 78.374 125.088C77.71 125.088 77.1826 124.896 76.792 124.512C76.4014 124.121 76.2061 123.623 76.2061 123.018ZM83.1982 123.018V122.637C83.1982 122.025 83.3903 121.523 83.7744 121.133C84.165 120.742 84.6924 120.547 85.3564 120.547C86.027 120.547 86.5576 120.742 86.9482 121.133C87.3389 121.523 87.5342 122.025 87.5342 122.637V123.018C87.5342 123.623 87.3389 124.121 86.9482 124.512C86.5641 124.896 86.0368 125.088 85.3662 125.088C84.7021 125.088 84.1748 124.896 83.7842 124.512C83.3936 124.121 83.1982 123.623 83.1982 123.018ZM100.151 123.018V122.637C100.151 122.025 100.343 121.523 100.728 121.133C101.118 120.742 101.646 120.547 102.31 120.547C102.98 120.547 103.511 120.742 103.901 121.133C104.292 121.523 104.487 122.025 104.487 122.637V123.018C104.487 123.623 104.292 124.121 103.901 124.512C103.517 124.896 102.99 125.088 102.319 125.088C101.655 125.088 101.128 124.896 100.737 124.512C100.347 124.121 100.151 123.623 100.151 123.018ZM107.144 123.018V122.637C107.144 122.025 107.336 121.523 107.72 121.133C108.11 120.742 108.638 120.547 109.302 120.547C109.972 120.547 110.503 120.742 110.894 121.133C111.284 121.523 111.479 122.025 111.479 122.637V123.018C111.479 123.623 111.284 124.121 110.894 124.512C110.509 124.896 109.982 125.088 109.312 125.088C108.647 125.088 108.12 124.896 107.729 124.512C107.339 124.121 107.144 123.623 107.144 123.018ZM114.136 123.018V122.637C114.136 122.025 114.328 121.523 114.712 121.133C115.103 120.742 115.63 120.547 116.294 120.547C116.965 120.547 117.495 120.742 117.886 121.133C118.276 121.523 118.472 122.025 118.472 122.637V123.018C118.472 123.623 118.276 124.121 117.886 124.512C117.502 124.896 116.974 125.088 116.304 125.088C115.64 125.088 115.112 124.896 114.722 124.512C114.331 124.121 114.136 123.623 114.136 123.018ZM121.128 123.018V122.637C121.128 122.025 121.32 121.523 121.704 121.133C122.095 120.742 122.622 120.547 123.286 120.547C123.957 120.547 124.487 120.742 124.878 121.133C125.269 121.523 125.464 122.025 125.464 122.637V123.018C125.464 123.623 125.269 124.121 124.878 124.512C124.494 124.896 123.966 125.088 123.296 125.088C122.632 125.088 122.104 124.896 121.714 124.512C121.323 124.121 121.128 123.623 121.128 123.018ZM147.339 128.271V130.146H137.808V128.535L142.437 123.486C142.944 122.913 143.345 122.419 143.638 122.002C143.931 121.585 144.136 121.211 144.253 120.879C144.377 120.54 144.438 120.212 144.438 119.893C144.438 119.443 144.354 119.049 144.185 118.711C144.022 118.366 143.781 118.096 143.462 117.9C143.143 117.699 142.756 117.598 142.3 117.598C141.772 117.598 141.33 117.712 140.972 117.939C140.614 118.167 140.343 118.483 140.161 118.887C139.979 119.284 139.888 119.74 139.888 120.254H137.534C137.534 119.427 137.723 118.672 138.101 117.988C138.478 117.298 139.025 116.751 139.741 116.348C140.457 115.938 141.32 115.732 142.329 115.732C143.28 115.732 144.087 115.892 144.751 116.211C145.415 116.53 145.92 116.982 146.265 117.568C146.616 118.154 146.792 118.848 146.792 119.648C146.792 120.091 146.72 120.531 146.577 120.967C146.434 121.403 146.229 121.839 145.962 122.275C145.701 122.705 145.392 123.138 145.034 123.574C144.676 124.004 144.282 124.44 143.853 124.883L140.776 128.271H147.339ZM151.938 121.973H153.345C153.892 121.973 154.344 121.878 154.702 121.689C155.067 121.501 155.337 121.24 155.513 120.908C155.688 120.576 155.776 120.195 155.776 119.766C155.776 119.316 155.695 118.932 155.532 118.613C155.376 118.288 155.135 118.037 154.81 117.861C154.491 117.686 154.084 117.598 153.589 117.598C153.172 117.598 152.795 117.682 152.456 117.852C152.124 118.014 151.86 118.249 151.665 118.555C151.47 118.854 151.372 119.212 151.372 119.629H149.009C149.009 118.874 149.207 118.203 149.604 117.617C150.002 117.031 150.542 116.572 151.226 116.24C151.916 115.902 152.69 115.732 153.55 115.732C154.468 115.732 155.269 115.885 155.952 116.191C156.642 116.491 157.179 116.94 157.563 117.539C157.948 118.138 158.14 118.88 158.14 119.766C158.14 120.169 158.045 120.579 157.856 120.996C157.668 121.413 157.388 121.794 157.017 122.139C156.646 122.477 156.183 122.754 155.63 122.969C155.076 123.177 154.435 123.281 153.706 123.281H151.938V121.973ZM151.938 123.809V122.52H153.706C154.539 122.52 155.249 122.617 155.835 122.812C156.427 123.008 156.909 123.278 157.28 123.623C157.651 123.962 157.922 124.349 158.091 124.785C158.267 125.221 158.354 125.684 158.354 126.172C158.354 126.836 158.234 127.428 157.993 127.949C157.759 128.464 157.424 128.9 156.987 129.258C156.551 129.616 156.04 129.886 155.454 130.068C154.875 130.251 154.243 130.342 153.56 130.342C152.948 130.342 152.362 130.257 151.802 130.088C151.242 129.919 150.741 129.668 150.298 129.336C149.855 128.997 149.504 128.577 149.243 128.076C148.989 127.568 148.862 126.982 148.862 126.318H151.216C151.216 126.742 151.313 127.116 151.509 127.441C151.711 127.76 151.991 128.011 152.349 128.193C152.713 128.376 153.13 128.467 153.599 128.467C154.093 128.467 154.52 128.379 154.878 128.203C155.236 128.027 155.509 127.767 155.698 127.422C155.894 127.077 155.991 126.66 155.991 126.172C155.991 125.618 155.884 125.169 155.669 124.824C155.454 124.479 155.148 124.225 154.751 124.062C154.354 123.893 153.885 123.809 153.345 123.809H151.938ZM167.651 115.84H167.944V117.764H167.778C166.938 117.764 166.213 117.894 165.601 118.154C164.995 118.415 164.497 118.773 164.106 119.229C163.716 119.684 163.423 120.218 163.228 120.83C163.039 121.436 162.944 122.08 162.944 122.764V125C162.944 125.566 163.006 126.068 163.13 126.504C163.254 126.934 163.426 127.295 163.647 127.588C163.875 127.874 164.136 128.092 164.429 128.242C164.722 128.392 165.037 128.467 165.376 128.467C165.728 128.467 166.047 128.395 166.333 128.252C166.619 128.102 166.864 127.897 167.065 127.637C167.267 127.376 167.42 127.067 167.524 126.709C167.629 126.351 167.681 125.96 167.681 125.537C167.681 125.133 167.629 124.756 167.524 124.404C167.427 124.046 167.28 123.734 167.085 123.467C166.89 123.193 166.646 122.982 166.353 122.832C166.066 122.676 165.734 122.598 165.356 122.598C164.888 122.598 164.461 122.708 164.077 122.93C163.7 123.151 163.394 123.441 163.159 123.799C162.931 124.15 162.808 124.525 162.788 124.922L161.89 124.629C161.942 124.023 162.075 123.48 162.29 122.998C162.511 122.516 162.801 122.106 163.159 121.768C163.517 121.429 163.931 121.172 164.399 120.996C164.875 120.814 165.396 120.723 165.962 120.723C166.652 120.723 167.251 120.853 167.759 121.113C168.267 121.374 168.687 121.729 169.019 122.178C169.357 122.62 169.608 123.128 169.771 123.701C169.94 124.268 170.024 124.86 170.024 125.479C170.024 126.162 169.92 126.8 169.712 127.393C169.504 127.979 169.198 128.493 168.794 128.936C168.397 129.378 167.912 129.723 167.339 129.971C166.772 130.218 166.128 130.342 165.405 130.342C164.644 130.342 163.963 130.195 163.364 129.902C162.772 129.609 162.267 129.206 161.851 128.691C161.44 128.177 161.128 127.585 160.913 126.914C160.698 126.243 160.591 125.534 160.591 124.785V123.809C160.591 122.728 160.728 121.709 161.001 120.752C161.274 119.788 161.694 118.939 162.261 118.203C162.834 117.467 163.566 116.891 164.458 116.475C165.35 116.051 166.414 115.84 167.651 115.84ZM173.804 128.291H173.999C174.897 128.291 175.646 128.174 176.245 127.939C176.851 127.699 177.332 127.367 177.69 126.943C178.049 126.52 178.306 126.022 178.462 125.449C178.618 124.876 178.696 124.255 178.696 123.584V121.133C178.696 120.553 178.634 120.046 178.511 119.609C178.394 119.167 178.224 118.799 178.003 118.506C177.788 118.206 177.537 117.982 177.251 117.832C176.971 117.682 176.668 117.607 176.343 117.607C175.985 117.607 175.662 117.689 175.376 117.852C175.096 118.008 174.858 118.226 174.663 118.506C174.474 118.779 174.328 119.102 174.224 119.473C174.126 119.837 174.077 120.228 174.077 120.645C174.077 121.035 174.123 121.413 174.214 121.777C174.312 122.135 174.455 122.454 174.644 122.734C174.832 123.014 175.07 123.236 175.356 123.398C175.643 123.561 175.978 123.643 176.362 123.643C176.727 123.643 177.062 123.574 177.368 123.438C177.674 123.294 177.941 123.102 178.169 122.861C178.397 122.62 178.576 122.35 178.706 122.051C178.836 121.751 178.908 121.445 178.921 121.133L179.819 121.406C179.819 121.901 179.715 122.389 179.507 122.871C179.305 123.346 179.022 123.783 178.657 124.18C178.299 124.57 177.879 124.883 177.397 125.117C176.922 125.352 176.405 125.469 175.845 125.469C175.168 125.469 174.569 125.342 174.048 125.088C173.534 124.827 173.104 124.476 172.759 124.033C172.42 123.59 172.166 123.083 171.997 122.51C171.828 121.937 171.743 121.335 171.743 120.703C171.743 120.02 171.847 119.378 172.056 118.779C172.264 118.18 172.567 117.653 172.964 117.197C173.361 116.735 173.843 116.377 174.409 116.123C174.982 115.863 175.63 115.732 176.353 115.732C177.121 115.732 177.795 115.882 178.374 116.182C178.953 116.481 179.442 116.895 179.839 117.422C180.236 117.949 180.535 118.561 180.737 119.258C180.939 119.954 181.04 120.703 181.04 121.504V122.334C181.04 123.174 180.965 123.984 180.815 124.766C180.666 125.54 180.422 126.26 180.083 126.924C179.751 127.581 179.312 128.161 178.765 128.662C178.224 129.157 177.56 129.544 176.772 129.824C175.991 130.098 175.073 130.234 174.019 130.234H173.804V128.291Z" fill="black"/>
<path d="M28.0508 182.311V175.345H29.7598V182.311C29.7598 182.971 29.6185 183.534 29.3359 183.999C29.0534 184.464 28.6683 184.819 28.1807 185.065C27.693 185.312 27.1393 185.435 26.5195 185.435C25.8861 185.435 25.3232 185.327 24.8311 185.113C24.3434 184.899 23.9606 184.571 23.6826 184.129C23.4046 183.687 23.2656 183.126 23.2656 182.447H24.9883C24.9883 182.839 25.0498 183.156 25.1729 183.397C25.3005 183.634 25.4782 183.808 25.7061 183.917C25.9385 184.022 26.2096 184.074 26.5195 184.074C26.8158 184.074 27.0778 184.008 27.3057 183.876C27.5381 183.739 27.7204 183.541 27.8525 183.281C27.9847 183.017 28.0508 182.693 28.0508 182.311ZM36.0215 183.555V177.901H37.6758V185.298H36.1172L36.0215 183.555ZM36.2539 182.017L36.8076 182.003C36.8076 182.5 36.7529 182.958 36.6436 183.377C36.5342 183.792 36.3656 184.154 36.1377 184.464C35.9098 184.769 35.6182 185.008 35.2627 185.182C34.9072 185.35 34.4811 185.435 33.9844 185.435C33.6243 185.435 33.2939 185.382 32.9932 185.277C32.6924 185.173 32.4326 185.011 32.2139 184.792C31.9997 184.573 31.8333 184.288 31.7148 183.938C31.5964 183.587 31.5371 183.167 31.5371 182.68V177.901H33.1846V182.693C33.1846 182.962 33.2165 183.188 33.2803 183.37C33.3441 183.548 33.4307 183.691 33.54 183.801C33.6494 183.91 33.777 183.988 33.9229 184.033C34.0687 184.079 34.2236 184.102 34.3877 184.102C34.8571 184.102 35.2262 184.01 35.4951 183.828C35.7686 183.641 35.9622 183.391 36.0762 183.076C36.1947 182.762 36.2539 182.409 36.2539 182.017ZM43.5342 183.814V180.287C43.5342 180.023 43.4863 179.795 43.3906 179.604C43.2949 179.412 43.1491 179.264 42.9531 179.159C42.7617 179.054 42.5202 179.002 42.2285 179.002C41.9596 179.002 41.7272 179.048 41.5312 179.139C41.3353 179.23 41.1826 179.353 41.0732 179.508C40.9639 179.663 40.9092 179.838 40.9092 180.034H39.2686C39.2686 179.743 39.3392 179.46 39.4805 179.187C39.6217 178.913 39.8268 178.669 40.0957 178.455C40.3646 178.241 40.6859 178.072 41.0596 177.949C41.4333 177.826 41.8525 177.765 42.3174 177.765C42.8734 177.765 43.3656 177.858 43.7939 178.045C44.2269 178.232 44.5664 178.514 44.8125 178.893C45.0632 179.266 45.1885 179.736 45.1885 180.301V183.589C45.1885 183.926 45.2113 184.229 45.2568 184.498C45.307 184.762 45.3776 184.993 45.4688 185.188V185.298H43.7803C43.7028 185.12 43.6413 184.895 43.5957 184.621C43.5547 184.343 43.5342 184.074 43.5342 183.814ZM43.7734 180.8L43.7871 181.818H42.6045C42.2992 181.818 42.0303 181.848 41.7979 181.907C41.5654 181.962 41.3717 182.044 41.2168 182.153C41.0618 182.263 40.9456 182.395 40.8682 182.55C40.7907 182.705 40.752 182.88 40.752 183.076C40.752 183.272 40.7975 183.452 40.8887 183.616C40.9798 183.776 41.112 183.901 41.2852 183.992C41.4629 184.083 41.6771 184.129 41.9277 184.129C42.265 184.129 42.5589 184.061 42.8096 183.924C43.0648 183.783 43.2653 183.612 43.4111 183.411C43.557 183.206 43.6344 183.012 43.6436 182.83L44.1768 183.562C44.1221 183.748 44.0286 183.949 43.8965 184.163C43.7643 184.377 43.5911 184.582 43.377 184.778C43.1673 184.97 42.9144 185.127 42.6182 185.25C42.3265 185.373 41.9893 185.435 41.6064 185.435C41.1234 185.435 40.6927 185.339 40.3145 185.147C39.9362 184.951 39.64 184.689 39.4258 184.361C39.2116 184.029 39.1045 183.653 39.1045 183.233C39.1045 182.841 39.1774 182.495 39.3232 182.194C39.4736 181.889 39.6924 181.634 39.9795 181.429C40.2712 181.224 40.6266 181.069 41.0459 180.964C41.4652 180.854 41.9437 180.8 42.4814 180.8H43.7734ZM48.5449 179.48V185.298H46.8975V177.901H48.4492L48.5449 179.48ZM48.251 181.326L47.7178 181.319C47.7223 180.795 47.7952 180.314 47.9365 179.877C48.0824 179.439 48.2829 179.063 48.5381 178.749C48.7979 178.435 49.1077 178.193 49.4678 178.024C49.8278 177.851 50.2288 177.765 50.6709 177.765C51.0264 177.765 51.3477 177.815 51.6348 177.915C51.9264 178.011 52.1748 178.168 52.3799 178.387C52.5895 178.605 52.749 178.89 52.8584 179.241C52.9678 179.588 53.0225 180.014 53.0225 180.52V185.298H51.3682V180.513C51.3682 180.157 51.3158 179.877 51.2109 179.672C51.1107 179.462 50.9626 179.314 50.7666 179.228C50.5752 179.136 50.3359 179.091 50.0488 179.091C49.7663 179.091 49.5133 179.15 49.29 179.269C49.0667 179.387 48.8776 179.549 48.7227 179.754C48.5723 179.959 48.4561 180.196 48.374 180.465C48.292 180.734 48.251 181.021 48.251 181.326ZM58.874 183.814V180.287C58.874 180.023 58.8262 179.795 58.7305 179.604C58.6348 179.412 58.4889 179.264 58.293 179.159C58.1016 179.054 57.86 179.002 57.5684 179.002C57.2995 179.002 57.0671 179.048 56.8711 179.139C56.6751 179.23 56.5225 179.353 56.4131 179.508C56.3037 179.663 56.249 179.838 56.249 180.034H54.6084C54.6084 179.743 54.679 179.46 54.8203 179.187C54.9616 178.913 55.1667 178.669 55.4355 178.455C55.7044 178.241 56.0257 178.072 56.3994 177.949C56.7731 177.826 57.1924 177.765 57.6572 177.765C58.2132 177.765 58.7054 177.858 59.1338 178.045C59.5667 178.232 59.9062 178.514 60.1523 178.893C60.403 179.266 60.5283 179.736 60.5283 180.301V183.589C60.5283 183.926 60.5511 184.229 60.5967 184.498C60.6468 184.762 60.7174 184.993 60.8086 185.188V185.298H59.1201C59.0426 185.12 58.9811 184.895 58.9355 184.621C58.8945 184.343 58.874 184.074 58.874 183.814ZM59.1133 180.8L59.127 181.818H57.9443C57.639 181.818 57.3701 181.848 57.1377 181.907C56.9053 181.962 56.7116 182.044 56.5566 182.153C56.4017 182.263 56.2855 182.395 56.208 182.55C56.1305 182.705 56.0918 182.88 56.0918 183.076C56.0918 183.272 56.1374 183.452 56.2285 183.616C56.3197 183.776 56.4518 183.901 56.625 183.992C56.8027 184.083 57.0169 184.129 57.2676 184.129C57.6048 184.129 57.8988 184.061 58.1494 183.924C58.4046 183.783 58.6051 183.612 58.751 183.411C58.8968 183.206 58.9743 183.012 58.9834 182.83L59.5166 183.562C59.4619 183.748 59.3685 183.949 59.2363 184.163C59.1042 184.377 58.931 184.582 58.7168 184.778C58.5072 184.97 58.2542 185.127 57.958 185.25C57.6663 185.373 57.3291 185.435 56.9463 185.435C56.4632 185.435 56.0326 185.339 55.6543 185.147C55.276 184.951 54.9798 184.689 54.7656 184.361C54.5514 184.029 54.4443 183.653 54.4443 183.233C54.4443 182.841 54.5173 182.495 54.6631 182.194C54.8135 181.889 55.0322 181.634 55.3193 181.429C55.611 181.224 55.9665 181.069 56.3857 180.964C56.805 180.854 57.2835 180.8 57.8213 180.8H59.1133ZM72.1357 183.938V185.298H67.1387V183.938H72.1357ZM67.6172 175.345V185.298H65.9014V175.345H67.6172ZM72.9834 181.682V181.524C72.9834 180.991 73.0609 180.497 73.2158 180.041C73.3708 179.581 73.5941 179.182 73.8857 178.845C74.182 178.503 74.542 178.239 74.9658 178.052C75.3942 177.86 75.8773 177.765 76.415 177.765C76.9574 177.765 77.4404 177.86 77.8643 178.052C78.2926 178.239 78.6549 178.503 78.9512 178.845C79.2474 179.182 79.473 179.581 79.6279 180.041C79.7829 180.497 79.8604 180.991 79.8604 181.524V181.682C79.8604 182.215 79.7829 182.709 79.6279 183.165C79.473 183.621 79.2474 184.02 78.9512 184.361C78.6549 184.699 78.2949 184.963 77.8711 185.154C77.4473 185.341 76.9665 185.435 76.4287 185.435C75.8864 185.435 75.401 185.341 74.9727 185.154C74.5488 184.963 74.1888 184.699 73.8926 184.361C73.5964 184.02 73.3708 183.621 73.2158 183.165C73.0609 182.709 72.9834 182.215 72.9834 181.682ZM74.6309 181.524V181.682C74.6309 182.014 74.665 182.329 74.7334 182.625C74.8018 182.921 74.9089 183.181 75.0547 183.404C75.2005 183.628 75.3874 183.803 75.6152 183.931C75.8431 184.058 76.1143 184.122 76.4287 184.122C76.734 184.122 76.9984 184.058 77.2217 183.931C77.4495 183.803 77.6364 183.628 77.7822 183.404C77.9281 183.181 78.0352 182.921 78.1035 182.625C78.1764 182.329 78.2129 182.014 78.2129 181.682V181.524C78.2129 181.196 78.1764 180.886 78.1035 180.595C78.0352 180.299 77.9258 180.036 77.7754 179.809C77.6296 179.581 77.4427 179.403 77.2148 179.275C76.9915 179.143 76.7249 179.077 76.415 179.077C76.1051 179.077 75.8363 179.143 75.6084 179.275C75.3851 179.403 75.2005 179.581 75.0547 179.809C74.9089 180.036 74.8018 180.299 74.7334 180.595C74.665 180.886 74.6309 181.196 74.6309 181.524ZM75.5537 176.855L76.8867 174.798H78.7461L76.8867 176.855H75.5537ZM82.8955 179.323V188.142H81.248V177.901H82.7656L82.8955 179.323ZM87.7148 181.531V181.675C87.7148 182.213 87.651 182.712 87.5234 183.172C87.4004 183.628 87.2158 184.026 86.9697 184.368C86.7282 184.705 86.4297 184.967 86.0742 185.154C85.7188 185.341 85.3086 185.435 84.8438 185.435C84.3835 185.435 83.9801 185.35 83.6338 185.182C83.292 185.008 83.0026 184.765 82.7656 184.45C82.5286 184.136 82.3372 183.767 82.1914 183.343C82.0501 182.914 81.9499 182.445 81.8906 181.935V181.381C81.9499 180.839 82.0501 180.346 82.1914 179.904C82.3372 179.462 82.5286 179.082 82.7656 178.763C83.0026 178.444 83.292 178.198 83.6338 178.024C83.9756 177.851 84.3743 177.765 84.8301 177.765C85.2949 177.765 85.7074 177.856 86.0674 178.038C86.4274 178.216 86.7305 178.471 86.9766 178.804C87.2227 179.132 87.4072 179.528 87.5303 179.993C87.6533 180.453 87.7148 180.966 87.7148 181.531ZM86.0674 181.675V181.531C86.0674 181.189 86.0355 180.873 85.9717 180.581C85.9079 180.285 85.8076 180.025 85.6709 179.802C85.5342 179.578 85.3587 179.405 85.1445 179.282C84.9349 179.155 84.682 179.091 84.3857 179.091C84.0941 179.091 83.8434 179.141 83.6338 179.241C83.4242 179.337 83.2487 179.471 83.1074 179.645C82.9661 179.818 82.8568 180.021 82.7793 180.253C82.7018 180.481 82.6471 180.729 82.6152 180.998V182.324C82.6699 182.652 82.7633 182.953 82.8955 183.227C83.0277 183.5 83.2145 183.719 83.4561 183.883C83.7021 184.042 84.0166 184.122 84.3994 184.122C84.6956 184.122 84.9486 184.058 85.1582 183.931C85.3678 183.803 85.5387 183.628 85.6709 183.404C85.8076 183.176 85.9079 182.914 85.9717 182.618C86.0355 182.322 86.0674 182.007 86.0674 181.675ZM92.377 185.435C91.8301 185.435 91.3356 185.346 90.8936 185.168C90.4561 184.986 90.0824 184.733 89.7725 184.409C89.4671 184.086 89.2324 183.705 89.0684 183.268C88.9043 182.83 88.8223 182.358 88.8223 181.853V181.579C88.8223 181 88.9066 180.476 89.0752 180.007C89.2438 179.537 89.4785 179.136 89.7793 178.804C90.0801 178.466 90.4355 178.209 90.8457 178.031C91.2559 177.854 91.7002 177.765 92.1787 177.765C92.7074 177.765 93.1699 177.854 93.5664 178.031C93.9629 178.209 94.291 178.46 94.5508 178.783C94.8151 179.102 95.0111 179.483 95.1387 179.925C95.2708 180.367 95.3369 180.854 95.3369 181.388V182.092H89.6221V180.909H93.71V180.779C93.7008 180.483 93.6416 180.205 93.5322 179.945C93.4274 179.686 93.2656 179.476 93.0469 179.316C92.8281 179.157 92.5365 179.077 92.1719 179.077C91.8984 179.077 91.6546 179.136 91.4404 179.255C91.2308 179.369 91.0553 179.535 90.9141 179.754C90.7728 179.973 90.6634 180.237 90.5859 180.547C90.513 180.852 90.4766 181.196 90.4766 181.579V181.853C90.4766 182.176 90.5199 182.477 90.6064 182.755C90.6976 183.028 90.8298 183.268 91.0029 183.473C91.1761 183.678 91.3857 183.84 91.6318 183.958C91.8779 184.072 92.1582 184.129 92.4727 184.129C92.8691 184.129 93.2223 184.049 93.5322 183.89C93.8421 183.73 94.111 183.505 94.3389 183.213L95.207 184.054C95.0475 184.286 94.8402 184.509 94.585 184.724C94.3298 184.933 94.0176 185.104 93.6484 185.236C93.2839 185.368 92.86 185.435 92.377 185.435ZM102.344 183.985V185.298H96.834V183.985H102.344ZM102.193 178.927L97.3945 185.298H96.3281V184.238L101.1 177.901H102.193V178.927ZM101.558 177.901V179.214H96.4102V177.901H101.558Z" fill="black"/>
<path d="M30.3682 164.77V166.083H23.6963V164.955L26.9365 161.42C27.292 161.019 27.5723 160.673 27.7773 160.381C27.9824 160.09 28.126 159.828 28.208 159.595C28.2946 159.358 28.3379 159.128 28.3379 158.905C28.3379 158.59 28.2786 158.315 28.1602 158.078C28.0462 157.836 27.8776 157.647 27.6543 157.51C27.431 157.369 27.1598 157.298 26.8408 157.298C26.4717 157.298 26.1618 157.378 25.9111 157.538C25.6605 157.697 25.4714 157.918 25.3438 158.201C25.2161 158.479 25.1523 158.798 25.1523 159.158H23.5049C23.5049 158.579 23.637 158.05 23.9014 157.572C24.1657 157.089 24.5485 156.706 25.0498 156.423C25.5511 156.136 26.1549 155.993 26.8613 155.993C27.5267 155.993 28.0918 156.104 28.5566 156.328C29.0215 156.551 29.3747 156.868 29.6162 157.278C29.8623 157.688 29.9854 158.173 29.9854 158.734C29.9854 159.044 29.9352 159.351 29.835 159.657C29.7347 159.962 29.5911 160.267 29.4043 160.573C29.222 160.874 29.0055 161.177 28.7549 161.482C28.5042 161.783 28.2285 162.088 27.9277 162.398L25.7744 164.77H30.3682ZM33.5879 160.361H34.5723C34.9551 160.361 35.2718 160.295 35.5225 160.163C35.7777 160.03 35.9668 159.848 36.0898 159.616C36.2129 159.383 36.2744 159.117 36.2744 158.816C36.2744 158.501 36.2174 158.233 36.1035 158.009C35.9941 157.781 35.8255 157.606 35.5977 157.483C35.3743 157.36 35.0895 157.298 34.7432 157.298C34.4515 157.298 34.1872 157.358 33.9502 157.476C33.7178 157.59 33.5332 157.754 33.3965 157.968C33.2598 158.178 33.1914 158.429 33.1914 158.72H31.5371C31.5371 158.192 31.6761 157.722 31.9541 157.312C32.2321 156.902 32.6104 156.581 33.0889 156.348C33.5719 156.111 34.1143 155.993 34.7158 155.993C35.3584 155.993 35.9189 156.1 36.3975 156.314C36.8805 156.524 37.2565 156.838 37.5254 157.257C37.7943 157.677 37.9287 158.196 37.9287 158.816C37.9287 159.098 37.8626 159.386 37.7305 159.677C37.5983 159.969 37.4023 160.236 37.1426 160.477C36.8828 160.714 36.5592 160.908 36.1719 161.058C35.7845 161.204 35.3356 161.277 34.8252 161.277H33.5879V160.361ZM33.5879 161.646V160.744H34.8252C35.4085 160.744 35.9053 160.812 36.3154 160.949C36.7301 161.085 37.0674 161.275 37.3271 161.516C37.5869 161.753 37.776 162.024 37.8945 162.33C38.0176 162.635 38.0791 162.958 38.0791 163.3C38.0791 163.765 37.9948 164.18 37.8262 164.544C37.6621 164.904 37.4274 165.21 37.1221 165.46C36.8167 165.711 36.459 165.9 36.0488 166.028C35.6432 166.155 35.2012 166.219 34.7227 166.219C34.2943 166.219 33.8841 166.16 33.4922 166.042C33.1003 165.923 32.7493 165.748 32.4395 165.515C32.1296 165.278 31.8835 164.984 31.7012 164.633C31.5234 164.278 31.4346 163.868 31.4346 163.403H33.082C33.082 163.699 33.1504 163.961 33.2871 164.189C33.4284 164.412 33.6243 164.588 33.875 164.715C34.1302 164.843 34.4219 164.907 34.75 164.907C35.0964 164.907 35.3949 164.845 35.6455 164.722C35.8962 164.599 36.0876 164.417 36.2197 164.175C36.3564 163.934 36.4248 163.642 36.4248 163.3C36.4248 162.913 36.3496 162.598 36.1992 162.357C36.0488 162.115 35.8346 161.938 35.5566 161.824C35.2786 161.705 34.9505 161.646 34.5723 161.646H33.5879ZM44.0332 156.129L40.1572 166.937H38.8652L42.748 156.129H44.0332ZM51.751 164.77V166.083H45.0791V164.955L48.3193 161.42C48.6748 161.019 48.9551 160.673 49.1602 160.381C49.3652 160.09 49.5088 159.828 49.5908 159.595C49.6774 159.358 49.7207 159.128 49.7207 158.905C49.7207 158.59 49.6615 158.315 49.543 158.078C49.429 157.836 49.2604 157.647 49.0371 157.51C48.8138 157.369 48.5426 157.298 48.2236 157.298C47.8545 157.298 47.5446 157.378 47.2939 157.538C47.0433 157.697 46.8542 157.918 46.7266 158.201C46.599 158.479 46.5352 158.798 46.5352 159.158H44.8877C44.8877 158.579 45.0199 158.05 45.2842 157.572C45.5485 157.089 45.9313 156.706 46.4326 156.423C46.9339 156.136 47.5378 155.993 48.2441 155.993C48.9095 155.993 49.4746 156.104 49.9395 156.328C50.4043 156.551 50.7575 156.868 50.999 157.278C51.2451 157.688 51.3682 158.173 51.3682 158.734C51.3682 159.044 51.318 159.351 51.2178 159.657C51.1175 159.962 50.974 160.267 50.7871 160.573C50.6048 160.874 50.3883 161.177 50.1377 161.482C49.887 161.783 49.6113 162.088 49.3105 162.398L47.1572 164.77H51.751ZM59.5439 163.369C59.5439 163.988 59.4004 164.51 59.1133 164.934C58.8262 165.358 58.4342 165.679 57.9375 165.898C57.4453 166.112 56.8893 166.219 56.2695 166.219C55.6497 166.219 55.0915 166.112 54.5947 165.898C54.098 165.679 53.7061 165.358 53.4189 164.934C53.1318 164.51 52.9883 163.988 52.9883 163.369C52.9883 162.958 53.068 162.587 53.2275 162.254C53.387 161.917 53.6126 161.628 53.9043 161.386C54.2005 161.14 54.5469 160.951 54.9434 160.819C55.3444 160.687 55.7819 160.621 56.2559 160.621C56.8848 160.621 57.4476 160.737 57.9443 160.969C58.4411 161.202 58.8307 161.523 59.1133 161.933C59.4004 162.343 59.5439 162.822 59.5439 163.369ZM57.8896 163.287C57.8896 162.954 57.8213 162.662 57.6846 162.412C57.5479 162.161 57.3564 161.967 57.1104 161.831C56.8643 161.694 56.5794 161.625 56.2559 161.625C55.9277 161.625 55.6429 161.694 55.4014 161.831C55.1598 161.967 54.9707 162.161 54.834 162.412C54.7018 162.662 54.6357 162.954 54.6357 163.287C54.6357 163.624 54.7018 163.916 54.834 164.162C54.9661 164.403 55.1553 164.588 55.4014 164.715C55.6475 164.843 55.9368 164.907 56.2695 164.907C56.6022 164.907 56.8893 164.843 57.1309 164.715C57.3724 164.588 57.5592 164.403 57.6914 164.162C57.8236 163.916 57.8896 163.624 57.8896 163.287ZM59.3184 158.748C59.3184 159.244 59.1862 159.686 58.9219 160.074C58.6621 160.461 58.3021 160.766 57.8418 160.99C57.3815 161.208 56.8574 161.318 56.2695 161.318C55.6771 161.318 55.1484 161.208 54.6836 160.99C54.2233 160.766 53.861 160.461 53.5967 160.074C53.3369 159.686 53.207 159.244 53.207 158.748C53.207 158.155 53.3369 157.656 53.5967 157.25C53.861 156.84 54.2233 156.528 54.6836 156.314C55.1439 156.1 55.6702 155.993 56.2627 155.993C56.8551 155.993 57.3815 156.1 57.8418 156.314C58.3021 156.528 58.6621 156.84 58.9219 157.25C59.1862 157.656 59.3184 158.155 59.3184 158.748ZM57.6709 158.802C57.6709 158.506 57.6117 158.246 57.4932 158.023C57.3792 157.795 57.2174 157.617 57.0078 157.49C56.7982 157.362 56.5498 157.298 56.2627 157.298C55.9756 157.298 55.7272 157.36 55.5176 157.483C55.3079 157.606 55.1462 157.779 55.0322 158.002C54.9183 158.226 54.8613 158.492 54.8613 158.802C54.8613 159.108 54.9183 159.374 55.0322 159.602C55.1462 159.825 55.3079 160.001 55.5176 160.128C55.7318 160.256 55.9824 160.32 56.2695 160.32C56.5566 160.32 56.805 160.256 57.0146 160.128C57.2243 160.001 57.3861 159.825 57.5 159.602C57.6139 159.374 57.6709 159.108 57.6709 158.802Z" fill="black"/>
<path d="M24.8398 149.284L25.9619 145.797H26.7734L25.2441 150.063H24.6963L24.8398 149.284ZM23.8027 145.797L24.916 149.284L25.0684 150.063H24.5176L22.9941 145.797H23.8027ZM28.833 149.427V147.916C28.833 147.802 28.8125 147.705 28.7715 147.623C28.7305 147.541 28.668 147.477 28.584 147.432C28.502 147.387 28.3984 147.365 28.2734 147.365C28.1582 147.365 28.0586 147.384 27.9746 147.423C27.8906 147.462 27.8252 147.515 27.7783 147.582C27.7314 147.648 27.708 147.723 27.708 147.807H27.0049C27.0049 147.682 27.0352 147.561 27.0957 147.444C27.1562 147.327 27.2441 147.222 27.3594 147.13C27.4746 147.039 27.6123 146.966 27.7725 146.914C27.9326 146.861 28.1123 146.834 28.3115 146.834C28.5498 146.834 28.7607 146.875 28.9443 146.955C29.1299 147.035 29.2754 147.156 29.3809 147.318C29.4883 147.478 29.542 147.679 29.542 147.921V149.331C29.542 149.475 29.5518 149.605 29.5713 149.72C29.5928 149.833 29.623 149.932 29.6621 150.016V150.063H28.9385C28.9053 149.987 28.8789 149.89 28.8594 149.773C28.8418 149.654 28.833 149.539 28.833 149.427ZM28.9355 148.135L28.9414 148.572H28.4346C28.3037 148.572 28.1885 148.584 28.0889 148.61C27.9893 148.633 27.9062 148.668 27.8398 148.715C27.7734 148.762 27.7236 148.819 27.6904 148.885C27.6572 148.952 27.6406 149.027 27.6406 149.111C27.6406 149.195 27.6602 149.272 27.6992 149.342C27.7383 149.411 27.7949 149.464 27.8691 149.503C27.9453 149.542 28.0371 149.562 28.1445 149.562C28.2891 149.562 28.415 149.533 28.5225 149.474C28.6318 149.414 28.7178 149.34 28.7803 149.254C28.8428 149.167 28.876 149.083 28.8799 149.005L29.1084 149.319C29.085 149.399 29.0449 149.485 28.9883 149.577C28.9316 149.668 28.8574 149.756 28.7656 149.84C28.6758 149.922 28.5674 149.99 28.4404 150.042C28.3154 150.095 28.1709 150.122 28.0068 150.122C27.7998 150.122 27.6152 150.081 27.4531 149.999C27.291 149.915 27.1641 149.802 27.0723 149.662C26.9805 149.519 26.9346 149.358 26.9346 149.178C26.9346 149.01 26.9658 148.862 27.0283 148.733C27.0928 148.602 27.1865 148.493 27.3096 148.405C27.4346 148.317 27.5869 148.25 27.7666 148.206C27.9463 148.159 28.1514 148.135 28.3818 148.135H28.9355ZM31.0361 145.563V150.063H30.3271V145.563H31.0361ZM32.5654 146.893V150.063H31.8564V146.893H32.5654ZM31.8096 146.061C31.8096 145.954 31.8447 145.865 31.915 145.794C31.9873 145.722 32.0869 145.686 32.2139 145.686C32.3389 145.686 32.4375 145.722 32.5098 145.794C32.582 145.865 32.6182 145.954 32.6182 146.061C32.6182 146.167 32.582 146.254 32.5098 146.325C32.4375 146.395 32.3389 146.43 32.2139 146.43C32.0869 146.43 31.9873 146.395 31.915 146.325C31.8447 146.254 31.8096 146.167 31.8096 146.061ZM35.2725 149.407V145.563H35.9814V150.063H35.3398L35.2725 149.407ZM33.21 148.513V148.452C33.21 148.211 33.2383 147.993 33.2949 147.795C33.3516 147.596 33.4336 147.425 33.541 147.283C33.6484 147.138 33.7793 147.028 33.9336 146.952C34.0879 146.874 34.2617 146.834 34.4551 146.834C34.6465 146.834 34.8145 146.872 34.959 146.946C35.1035 147.02 35.2266 147.126 35.3281 147.265C35.4297 147.402 35.5107 147.566 35.5713 147.757C35.6318 147.947 35.6748 148.158 35.7002 148.39V148.586C35.6748 148.813 35.6318 149.02 35.5713 149.208C35.5107 149.395 35.4297 149.557 35.3281 149.694C35.2266 149.831 35.1025 149.936 34.9561 150.01C34.8115 150.084 34.6426 150.122 34.4492 150.122C34.2578 150.122 34.085 150.082 33.9307 150.001C33.7783 149.921 33.6484 149.809 33.541 149.665C33.4336 149.52 33.3516 149.35 33.2949 149.155C33.2383 148.958 33.21 148.744 33.21 148.513ZM33.916 148.452V148.513C33.916 148.658 33.9287 148.792 33.9541 148.917C33.9814 149.042 34.0234 149.153 34.0801 149.249C34.1367 149.342 34.21 149.417 34.2998 149.471C34.3916 149.524 34.501 149.55 34.6279 149.55C34.7881 149.55 34.9199 149.515 35.0234 149.445C35.127 149.375 35.208 149.28 35.2666 149.161C35.3271 149.04 35.3682 148.905 35.3896 148.756V148.226C35.3779 148.111 35.3535 148.003 35.3164 147.904C35.2812 147.804 35.2334 147.717 35.1729 147.643C35.1123 147.567 35.0371 147.508 34.9473 147.467C34.8594 147.424 34.7549 147.403 34.6338 147.403C34.5049 147.403 34.3955 147.43 34.3057 147.485C34.2158 147.54 34.1416 147.615 34.083 147.71C34.0264 147.806 33.9844 147.917 33.957 148.044C33.9297 148.171 33.916 148.307 33.916 148.452ZM39.8984 145.797V150.063H39.1689V145.797H39.8984ZM41.2373 145.797V146.383H37.8418V145.797H41.2373ZM42.4268 145.563V150.063H41.7236V145.563H42.4268ZM42.3037 148.361L42.0752 148.358C42.0771 148.139 42.1074 147.937 42.166 147.751C42.2266 147.566 42.3105 147.405 42.418 147.268C42.5273 147.129 42.6582 147.023 42.8105 146.949C42.9629 146.873 43.1318 146.834 43.3174 146.834C43.4736 146.834 43.6143 146.856 43.7393 146.899C43.8662 146.942 43.9756 147.011 44.0674 147.107C44.1592 147.201 44.2285 147.324 44.2754 147.476C44.3242 147.626 44.3486 147.81 44.3486 148.027V150.063H43.6396V148.021C43.6396 147.869 43.6172 147.748 43.5723 147.658C43.5293 147.568 43.4658 147.503 43.3818 147.464C43.2979 147.423 43.1953 147.403 43.0742 147.403C42.9473 147.403 42.835 147.428 42.7373 147.479C42.6416 147.53 42.5615 147.599 42.4971 147.687C42.4326 147.775 42.3838 147.876 42.3506 147.992C42.3193 148.107 42.3037 148.23 42.3037 148.361ZM45.7725 147.497V150.063H45.0664V146.893H45.7402L45.7725 147.497ZM46.7422 146.873L46.7363 147.529C46.6934 147.521 46.6465 147.515 46.5957 147.511C46.5469 147.507 46.498 147.505 46.4492 147.505C46.3281 147.505 46.2217 147.523 46.1299 147.558C46.0381 147.591 45.9609 147.64 45.8984 147.705C45.8379 147.767 45.791 147.843 45.7578 147.933C45.7246 148.023 45.7051 148.124 45.6992 148.235L45.5381 148.247C45.5381 148.047 45.5576 147.863 45.5967 147.693C45.6357 147.523 45.6943 147.374 45.7725 147.245C45.8525 147.116 45.9521 147.015 46.0713 146.943C46.1924 146.871 46.332 146.834 46.4902 146.834C46.5332 146.834 46.5791 146.838 46.6279 146.846C46.6787 146.854 46.7168 146.863 46.7422 146.873ZM49.0918 149.316V146.893H49.8008V150.063H49.1328L49.0918 149.316ZM49.1914 148.657L49.4287 148.651C49.4287 148.864 49.4053 149.06 49.3584 149.24C49.3115 149.417 49.2393 149.573 49.1416 149.706C49.0439 149.836 48.9189 149.939 48.7666 150.013C48.6143 150.085 48.4316 150.122 48.2188 150.122C48.0645 150.122 47.9229 150.099 47.7939 150.054C47.665 150.009 47.5537 149.94 47.46 149.846C47.3682 149.752 47.2969 149.63 47.2461 149.48C47.1953 149.33 47.1699 149.15 47.1699 148.941V146.893H47.876V148.947C47.876 149.062 47.8896 149.159 47.917 149.237C47.9443 149.313 47.9814 149.375 48.0283 149.421C48.0752 149.468 48.1299 149.501 48.1924 149.521C48.2549 149.541 48.3213 149.55 48.3916 149.55C48.5928 149.55 48.751 149.511 48.8662 149.433C48.9834 149.353 49.0664 149.246 49.1152 149.111C49.166 148.976 49.1914 148.825 49.1914 148.657Z" fill="black"/>
</g>
<defs>
<linearGradient id="paint0_linear_439_2975" x1="5.94368" y1="104.643" x2="421.14" y2="104.643" gradientUnits="userSpaceOnUse">
<stop stop-color="#C8C7C4"/>
<stop offset="0.11" stop-color="#BDBBB8"/>
<stop offset="0.31" stop-color="#A09D9A"/>
<stop offset="0.58" stop-color="#726C68"/>
<stop offset="0.9" stop-color="#332924"/>
<stop offset="0.99" stop-color="#1F140F"/>
</linearGradient>
<clipPath id="clip0_439_2975">
<rect width="354" height="209" fill="white"/>
</clipPath>
</defs>
</svg>
