<svg width="128" height="35" viewBox="0 0 128 35" fill="none" xmlns="http://www.w3.org/2000/svg">
<rect x="0.1" y="0.1" width="127.8" height="34.8" fill="white" stroke="black" stroke-width="0.2"/>
<path d="M22.0215 11.2031H23.665L27.8574 21.6357L32.041 11.2031H33.6934L28.4902 24H27.207L22.0215 11.2031ZM21.4854 11.2031H22.9355L23.1729 19.0078V24H21.4854V11.2031ZM32.7705 11.2031H34.2207V24H32.5332V19.0078L32.7705 11.2031ZM40.9004 24.1758C40.2383 24.1758 39.6377 24.0645 39.0986 23.8418C38.5654 23.6133 38.1055 23.2939 37.7188 22.8838C37.3379 22.4736 37.0449 21.9873 36.8398 21.4248C36.6348 20.8623 36.5322 20.2471 36.5322 19.5791V19.21C36.5322 18.4365 36.6465 17.748 36.875 17.1445C37.1035 16.5352 37.4141 16.0195 37.8066 15.5977C38.1992 15.1758 38.6445 14.8564 39.1426 14.6396C39.6406 14.4229 40.1562 14.3145 40.6895 14.3145C41.3691 14.3145 41.9551 14.4316 42.4473 14.666C42.9453 14.9004 43.3525 15.2285 43.6689 15.6504C43.9854 16.0664 44.2197 16.5586 44.3721 17.127C44.5244 17.6895 44.6006 18.3047 44.6006 18.9727V19.7021H37.499V18.375H42.9746V18.252C42.9512 17.8301 42.8633 17.4199 42.7109 17.0215C42.5645 16.623 42.3301 16.2949 42.0078 16.0371C41.6855 15.7793 41.2461 15.6504 40.6895 15.6504C40.3203 15.6504 39.9805 15.7295 39.6699 15.8877C39.3594 16.04 39.0928 16.2686 38.8701 16.5732C38.6475 16.8779 38.4746 17.25 38.3516 17.6895C38.2285 18.1289 38.167 18.6357 38.167 19.21V19.5791C38.167 20.0303 38.2285 20.4551 38.3516 20.8535C38.4805 21.2461 38.665 21.5918 38.9053 21.8906C39.1514 22.1895 39.4473 22.4238 39.793 22.5938C40.1445 22.7637 40.543 22.8486 40.9883 22.8486C41.5625 22.8486 42.0488 22.7314 42.4473 22.4971C42.8457 22.2627 43.1943 21.9492 43.4932 21.5566L44.4775 22.3389C44.2725 22.6494 44.0117 22.9453 43.6953 23.2266C43.3789 23.5078 42.9893 23.7363 42.5264 23.9121C42.0693 24.0879 41.5273 24.1758 40.9004 24.1758ZM48.125 16.5205V24H46.499V14.4902H48.0371L48.125 16.5205ZM47.7383 18.8848L47.0615 18.8584C47.0674 18.208 47.1641 17.6074 47.3516 17.0566C47.5391 16.5 47.8027 16.0166 48.1426 15.6064C48.4824 15.1963 48.8867 14.8799 49.3555 14.6572C49.8301 14.4287 50.3545 14.3145 50.9287 14.3145C51.3975 14.3145 51.8193 14.3789 52.1943 14.5078C52.5693 14.6309 52.8887 14.8301 53.1523 15.1055C53.4219 15.3809 53.627 15.7383 53.7676 16.1777C53.9082 16.6113 53.9785 17.1416 53.9785 17.7686V24H52.3438V17.751C52.3438 17.2529 52.2705 16.8545 52.124 16.5557C51.9775 16.251 51.7637 16.0312 51.4824 15.8965C51.2012 15.7559 50.8555 15.6855 50.4453 15.6855C50.041 15.6855 49.6719 15.7705 49.3379 15.9404C49.0098 16.1104 48.7256 16.3447 48.4854 16.6436C48.251 16.9424 48.0664 17.2852 47.9316 17.6719C47.8027 18.0527 47.7383 18.457 47.7383 18.8848ZM61.9854 21.4775C61.9854 21.2432 61.9326 21.0264 61.8271 20.8271C61.7275 20.6221 61.5195 20.4375 61.2031 20.2734C60.8926 20.1035 60.4238 19.957 59.7969 19.834C59.2695 19.7227 58.792 19.5908 58.3643 19.4385C57.9424 19.2861 57.582 19.1016 57.2832 18.8848C56.9902 18.668 56.7646 18.4131 56.6064 18.1201C56.4482 17.8271 56.3691 17.4844 56.3691 17.0918C56.3691 16.7168 56.4512 16.3623 56.6152 16.0283C56.7852 15.6943 57.0225 15.3984 57.3271 15.1406C57.6377 14.8828 58.0098 14.6807 58.4434 14.5342C58.877 14.3877 59.3604 14.3145 59.8936 14.3145C60.6553 14.3145 61.3057 14.4492 61.8447 14.7188C62.3838 14.9883 62.7969 15.3486 63.084 15.7998C63.3711 16.2451 63.5146 16.7402 63.5146 17.2852H61.8887C61.8887 17.0215 61.8096 16.7666 61.6514 16.5205C61.499 16.2686 61.2734 16.0605 60.9746 15.8965C60.6816 15.7324 60.3213 15.6504 59.8936 15.6504C59.4424 15.6504 59.0762 15.7207 58.7949 15.8613C58.5195 15.9961 58.3174 16.1689 58.1885 16.3799C58.0654 16.5908 58.0039 16.8135 58.0039 17.0479C58.0039 17.2236 58.0332 17.3818 58.0918 17.5225C58.1562 17.6572 58.2676 17.7832 58.4258 17.9004C58.584 18.0117 58.8066 18.1172 59.0938 18.2168C59.3809 18.3164 59.7471 18.416 60.1924 18.5156C60.9717 18.6914 61.6133 18.9023 62.1172 19.1484C62.6211 19.3945 62.9961 19.6963 63.2422 20.0537C63.4883 20.4111 63.6113 20.8447 63.6113 21.3545C63.6113 21.7705 63.5234 22.1514 63.3477 22.4971C63.1777 22.8428 62.9287 23.1416 62.6006 23.3936C62.2783 23.6396 61.8916 23.833 61.4404 23.9736C60.9951 24.1084 60.4941 24.1758 59.9375 24.1758C59.0996 24.1758 58.3906 24.0264 57.8105 23.7275C57.2305 23.4287 56.791 23.042 56.4922 22.5674C56.1934 22.0928 56.0439 21.5918 56.0439 21.0645H57.6787C57.7021 21.5098 57.8311 21.8643 58.0654 22.1279C58.2998 22.3857 58.5869 22.5703 58.9268 22.6816C59.2666 22.7871 59.6035 22.8398 59.9375 22.8398C60.3828 22.8398 60.7549 22.7812 61.0537 22.6641C61.3584 22.5469 61.5898 22.3857 61.748 22.1807C61.9062 21.9756 61.9854 21.7412 61.9854 21.4775ZM71.5654 21.8027V14.4902H73.2002V24H71.6445L71.5654 21.8027ZM71.873 19.7988L72.5498 19.7812C72.5498 20.4141 72.4824 21 72.3477 21.5391C72.2188 22.0723 72.0078 22.5352 71.7148 22.9277C71.4219 23.3203 71.0381 23.6279 70.5635 23.8506C70.0889 24.0674 69.5117 24.1758 68.832 24.1758C68.3691 24.1758 67.9443 24.1084 67.5576 23.9736C67.1768 23.8389 66.8486 23.6309 66.5732 23.3496C66.2979 23.0684 66.084 22.7021 65.9316 22.251C65.7852 21.7998 65.7119 21.2578 65.7119 20.625V14.4902H67.3379V20.6426C67.3379 21.0703 67.3848 21.4248 67.4785 21.7061C67.5781 21.9814 67.71 22.2012 67.874 22.3652C68.0439 22.5234 68.2314 22.6348 68.4365 22.6992C68.6475 22.7637 68.8643 22.7959 69.0869 22.7959C69.7783 22.7959 70.3262 22.6641 70.7305 22.4004C71.1348 22.1309 71.4248 21.7705 71.6006 21.3193C71.7822 20.8623 71.873 20.3555 71.873 19.7988ZM81.2861 22.374V17.4785C81.2861 17.1035 81.21 16.7783 81.0576 16.5029C80.9111 16.2217 80.6885 16.0049 80.3896 15.8525C80.0908 15.7002 79.7217 15.624 79.2822 15.624C78.8721 15.624 78.5117 15.6943 78.2012 15.835C77.8965 15.9756 77.6562 16.1602 77.4805 16.3887C77.3105 16.6172 77.2256 16.8633 77.2256 17.127H75.5996C75.5996 16.7871 75.6875 16.4502 75.8633 16.1162C76.0391 15.7822 76.291 15.4805 76.6191 15.2109C76.9531 14.9355 77.3516 14.7188 77.8145 14.5605C78.2832 14.3965 78.8047 14.3145 79.3789 14.3145C80.0703 14.3145 80.6797 14.4316 81.207 14.666C81.7402 14.9004 82.1562 15.2549 82.4551 15.7295C82.7598 16.1982 82.9121 16.7871 82.9121 17.4961V21.9258C82.9121 22.2422 82.9385 22.5791 82.9912 22.9365C83.0498 23.2939 83.1348 23.6016 83.2461 23.8594V24H81.5498C81.4678 23.8125 81.4033 23.5635 81.3564 23.2529C81.3096 22.9365 81.2861 22.6436 81.2861 22.374ZM81.5674 18.2344L81.585 19.377H79.9414C79.4785 19.377 79.0654 19.415 78.7021 19.4912C78.3389 19.5615 78.0342 19.6699 77.7881 19.8164C77.542 19.9629 77.3545 20.1475 77.2256 20.3701C77.0967 20.5869 77.0322 20.8418 77.0322 21.1348C77.0322 21.4336 77.0996 21.7061 77.2344 21.9521C77.3691 22.1982 77.5713 22.3945 77.8408 22.541C78.1162 22.6816 78.4531 22.752 78.8516 22.752C79.3496 22.752 79.7891 22.6465 80.1699 22.4355C80.5508 22.2246 80.8525 21.9668 81.0752 21.6621C81.3037 21.3574 81.4268 21.0615 81.4443 20.7744L82.1387 21.5566C82.0977 21.8027 81.9863 22.0752 81.8047 22.374C81.623 22.6729 81.3799 22.96 81.0752 23.2354C80.7764 23.5049 80.4189 23.7305 80.0029 23.9121C79.5928 24.0879 79.1299 24.1758 78.6143 24.1758C77.9697 24.1758 77.4043 24.0498 76.918 23.7979C76.4375 23.5459 76.0625 23.209 75.793 22.7871C75.5293 22.3594 75.3975 21.8818 75.3975 21.3545C75.3975 20.8447 75.4971 20.3965 75.6963 20.0098C75.8955 19.6172 76.1826 19.292 76.5576 19.0342C76.9326 18.7705 77.3838 18.5713 77.9111 18.4365C78.4385 18.3018 79.0273 18.2344 79.6777 18.2344H81.5674ZM87.2363 10.5V24H85.6016V10.5H87.2363Z" fill="black"/>
<line x1="111.424" y1="21.7891" x2="104.353" y2="14.718" stroke="black"/>
<line x1="110.717" y1="21.789" x2="117.788" y2="14.718" stroke="black"/>
</svg>
