<svg width="74" height="35" viewBox="0 0 74 35" fill="none" xmlns="http://www.w3.org/2000/svg">
<rect x="0.1" y="0.1" width="73.8" height="34.8" fill="white" stroke="black" stroke-width="0.2"/>
<path d="M26.4072 11.1328V24H24.7812V13.1631L21.5029 14.3584V12.8906L26.1523 11.1328H26.4072ZM39.2217 16.582V18.5332C39.2217 19.582 39.1279 20.4668 38.9404 21.1875C38.7529 21.9082 38.4834 22.4883 38.1318 22.9277C37.7803 23.3672 37.3555 23.6865 36.8574 23.8857C36.3652 24.0791 35.8086 24.1758 35.1875 24.1758C34.6953 24.1758 34.2412 24.1143 33.8252 23.9912C33.4092 23.8682 33.0342 23.6719 32.7002 23.4023C32.3721 23.127 32.0908 22.7695 31.8564 22.3301C31.6221 21.8906 31.4434 21.3574 31.3203 20.7305C31.1973 20.1035 31.1357 19.3711 31.1357 18.5332V16.582C31.1357 15.5332 31.2295 14.6543 31.417 13.9453C31.6104 13.2363 31.8828 12.668 32.2344 12.2402C32.5859 11.8066 33.0078 11.4961 33.5 11.3086C33.998 11.1211 34.5547 11.0273 35.1699 11.0273C35.668 11.0273 36.125 11.0889 36.541 11.2119C36.9629 11.3291 37.3379 11.5195 37.666 11.7832C37.9941 12.041 38.2725 12.3867 38.501 12.8203C38.7354 13.248 38.9141 13.7725 39.0371 14.3936C39.1602 15.0146 39.2217 15.7441 39.2217 16.582ZM37.5869 18.7969V16.3096C37.5869 15.7354 37.5518 15.2314 37.4814 14.7979C37.417 14.3584 37.3203 13.9834 37.1914 13.6729C37.0625 13.3623 36.8984 13.1104 36.6992 12.917C36.5059 12.7236 36.2803 12.583 36.0225 12.4951C35.7705 12.4014 35.4863 12.3545 35.1699 12.3545C34.7832 12.3545 34.4404 12.4277 34.1416 12.5742C33.8428 12.7148 33.5908 12.9404 33.3857 13.251C33.1865 13.5615 33.0342 13.9688 32.9287 14.4727C32.8232 14.9766 32.7705 15.5889 32.7705 16.3096V18.7969C32.7705 19.3711 32.8027 19.8779 32.8672 20.3174C32.9375 20.7568 33.04 21.1377 33.1748 21.46C33.3096 21.7764 33.4736 22.0371 33.667 22.2422C33.8604 22.4473 34.083 22.5996 34.335 22.6992C34.5928 22.793 34.877 22.8398 35.1875 22.8398C35.5859 22.8398 35.9346 22.7637 36.2334 22.6113C36.5322 22.459 36.7812 22.2217 36.9805 21.8994C37.1855 21.5713 37.3379 21.1523 37.4375 20.6426C37.5371 20.127 37.5869 19.5117 37.5869 18.7969ZM41.1729 14.3408V13.6641C41.1729 13.1777 41.2783 12.7354 41.4893 12.3369C41.7002 11.9385 42.002 11.6191 42.3945 11.3789C42.7871 11.1387 43.2529 11.0186 43.792 11.0186C44.3428 11.0186 44.8115 11.1387 45.1982 11.3789C45.5908 11.6191 45.8926 11.9385 46.1035 12.3369C46.3145 12.7354 46.4199 13.1777 46.4199 13.6641V14.3408C46.4199 14.8154 46.3145 15.252 46.1035 15.6504C45.8984 16.0488 45.5996 16.3682 45.207 16.6084C44.8203 16.8486 44.3545 16.9688 43.8096 16.9688C43.2646 16.9688 42.793 16.8486 42.3945 16.6084C42.002 16.3682 41.7002 16.0488 41.4893 15.6504C41.2783 15.252 41.1729 14.8154 41.1729 14.3408ZM42.3945 13.6641V14.3408C42.3945 14.6104 42.4443 14.8652 42.5439 15.1055C42.6494 15.3457 42.8076 15.542 43.0186 15.6943C43.2295 15.8408 43.4932 15.9141 43.8096 15.9141C44.126 15.9141 44.3867 15.8408 44.5918 15.6943C44.7969 15.542 44.9492 15.3457 45.0488 15.1055C45.1484 14.8652 45.1982 14.6104 45.1982 14.3408V13.6641C45.1982 13.3887 45.1455 13.1309 45.04 12.8906C44.9404 12.6445 44.7852 12.4482 44.5742 12.3018C44.3691 12.1494 44.1084 12.0732 43.792 12.0732C43.4814 12.0732 43.2207 12.1494 43.0098 12.3018C42.8047 12.4482 42.6494 12.6445 42.5439 12.8906C42.4443 13.1309 42.3945 13.3887 42.3945 13.6641ZM47.4043 21.5479V20.8623C47.4043 20.3818 47.5098 19.9424 47.7207 19.5439C47.9316 19.1455 48.2334 18.8262 48.626 18.5859C49.0186 18.3457 49.4844 18.2256 50.0234 18.2256C50.5742 18.2256 51.043 18.3457 51.4297 18.5859C51.8223 18.8262 52.124 19.1455 52.335 19.5439C52.5459 19.9424 52.6514 20.3818 52.6514 20.8623V21.5479C52.6514 22.0283 52.5459 22.4678 52.335 22.8662C52.1299 23.2646 51.8311 23.584 51.4385 23.8242C51.0518 24.0645 50.5859 24.1846 50.041 24.1846C49.4961 24.1846 49.0273 24.0645 48.6348 23.8242C48.2422 23.584 47.9375 23.2646 47.7207 22.8662C47.5098 22.4678 47.4043 22.0283 47.4043 21.5479ZM48.626 20.8623V21.5479C48.626 21.8174 48.6758 22.0752 48.7754 22.3213C48.8809 22.5615 49.0391 22.7578 49.25 22.9102C49.4609 23.0566 49.7246 23.1299 50.041 23.1299C50.3574 23.1299 50.6182 23.0566 50.8232 22.9102C51.0342 22.7578 51.1895 22.5615 51.2891 22.3213C51.3887 22.0811 51.4385 21.8232 51.4385 21.5479V20.8623C51.4385 20.5869 51.3857 20.3291 51.2803 20.0889C51.1807 19.8486 51.0254 19.6553 50.8145 19.5088C50.6094 19.3564 50.3457 19.2803 50.0234 19.2803C49.7129 19.2803 49.4521 19.3564 49.2412 19.5088C49.0361 19.6553 48.8809 19.8486 48.7754 20.0889C48.6758 20.3291 48.626 20.5869 48.626 20.8623ZM50.4277 13.0225L44.1787 23.0244L43.2646 22.4443L49.5137 12.4424L50.4277 13.0225Z" fill="black"/>
</svg>
