<svg width="106" height="35" viewBox="0 0 106 35" fill="none" xmlns="http://www.w3.org/2000/svg">
<rect x="0.1" y="0.1" width="105.8" height="34.8" fill="white" stroke="black" stroke-width="0.2"/>
<path d="M26.8467 22.374V17.4785C26.8467 17.1035 26.7705 16.7783 26.6182 16.5029C26.4717 16.2217 26.249 16.0049 25.9502 15.8525C25.6514 15.7002 25.2822 15.624 24.8428 15.624C24.4326 15.624 24.0723 15.6943 23.7617 15.835C23.457 15.9756 23.2168 16.1602 23.041 16.3887C22.8711 16.6172 22.7861 16.8633 22.7861 17.127H21.1602C21.1602 16.7871 21.248 16.4502 21.4238 16.1162C21.5996 15.7822 21.8516 15.4805 22.1797 15.2109C22.5137 14.9355 22.9121 14.7188 23.375 14.5605C23.8438 14.3965 24.3652 14.3145 24.9395 14.3145C25.6309 14.3145 26.2402 14.4316 26.7676 14.666C27.3008 14.9004 27.7168 15.2549 28.0156 15.7295C28.3203 16.1982 28.4727 16.7871 28.4727 17.4961V21.9258C28.4727 22.2422 28.499 22.5791 28.5518 22.9365C28.6104 23.2939 28.6953 23.6016 28.8066 23.8594V24H27.1104C27.0283 23.8125 26.9639 23.5635 26.917 23.2529C26.8701 22.9365 26.8467 22.6436 26.8467 22.374ZM27.1279 18.2344L27.1455 19.377H25.502C25.0391 19.377 24.626 19.415 24.2627 19.4912C23.8994 19.5615 23.5947 19.6699 23.3486 19.8164C23.1025 19.9629 22.915 20.1475 22.7861 20.3701C22.6572 20.5869 22.5928 20.8418 22.5928 21.1348C22.5928 21.4336 22.6602 21.7061 22.7949 21.9521C22.9297 22.1982 23.1318 22.3945 23.4014 22.541C23.6768 22.6816 24.0137 22.752 24.4121 22.752C24.9102 22.752 25.3496 22.6465 25.7305 22.4355C26.1113 22.2246 26.4131 21.9668 26.6357 21.6621C26.8643 21.3574 26.9873 21.0615 27.0049 20.7744L27.6992 21.5566C27.6582 21.8027 27.5469 22.0752 27.3652 22.374C27.1836 22.6729 26.9404 22.96 26.6357 23.2354C26.3369 23.5049 25.9795 23.7305 25.5635 23.9121C25.1533 24.0879 24.6904 24.1758 24.1748 24.1758C23.5303 24.1758 22.9648 24.0498 22.4785 23.7979C21.998 23.5459 21.623 23.209 21.3535 22.7871C21.0898 22.3594 20.958 21.8818 20.958 21.3545C20.958 20.8447 21.0576 20.3965 21.2568 20.0098C21.4561 19.6172 21.7432 19.292 22.1182 19.0342C22.4932 18.7705 22.9443 18.5713 23.4717 18.4365C23.999 18.3018 24.5879 18.2344 25.2383 18.2344H27.1279ZM32.6562 16.5205V24H31.0303V14.4902H32.5684L32.6562 16.5205ZM32.2695 18.8848L31.5928 18.8584C31.5986 18.208 31.6953 17.6074 31.8828 17.0566C32.0703 16.5 32.334 16.0166 32.6738 15.6064C33.0137 15.1963 33.418 14.8799 33.8867 14.6572C34.3613 14.4287 34.8857 14.3145 35.46 14.3145C35.9287 14.3145 36.3506 14.3789 36.7256 14.5078C37.1006 14.6309 37.4199 14.8301 37.6836 15.1055C37.9531 15.3809 38.1582 15.7383 38.2988 16.1777C38.4395 16.6113 38.5098 17.1416 38.5098 17.7686V24H36.875V17.751C36.875 17.2529 36.8018 16.8545 36.6553 16.5557C36.5088 16.251 36.2949 16.0312 36.0137 15.8965C35.7324 15.7559 35.3867 15.6855 34.9766 15.6855C34.5723 15.6855 34.2031 15.7705 33.8691 15.9404C33.541 16.1104 33.2568 16.3447 33.0166 16.6436C32.7822 16.9424 32.5977 17.2852 32.4629 17.6719C32.334 18.0527 32.2695 18.457 32.2695 18.8848ZM36.8486 10.6758L37.9473 10.7725C37.9473 11.2002 37.8623 11.5752 37.6924 11.8975C37.5225 12.2197 37.2939 12.4688 37.0068 12.6445C36.7256 12.8203 36.4062 12.9082 36.0488 12.9082C35.75 12.9082 35.5039 12.8672 35.3105 12.7852C35.1172 12.6973 34.9443 12.6006 34.792 12.4951C34.6396 12.3838 34.4785 12.2871 34.3086 12.2051C34.1445 12.1172 33.9395 12.0732 33.6934 12.0732C33.4473 12.0732 33.2393 12.167 33.0693 12.3545C32.9053 12.542 32.8232 12.7734 32.8232 13.0488L31.7246 12.9961C31.7246 12.5684 31.8066 12.1934 31.9707 11.8711C32.1406 11.543 32.3691 11.2881 32.6562 11.1064C32.9434 10.9189 33.2627 10.8252 33.6143 10.8252C33.8662 10.8252 34.0859 10.8691 34.2734 10.957C34.4668 11.0391 34.6484 11.1357 34.8184 11.2471C34.9883 11.3525 35.1641 11.4492 35.3457 11.5371C35.5273 11.6191 35.7354 11.6602 35.9697 11.6602C36.2158 11.6602 36.4238 11.5664 36.5938 11.3789C36.7637 11.1855 36.8486 10.9512 36.8486 10.6758ZM40.5488 19.3506V19.1484C40.5488 18.4629 40.6484 17.8271 40.8477 17.2412C41.0469 16.6494 41.334 16.1367 41.709 15.7031C42.084 15.2637 42.5381 14.9238 43.0713 14.6836C43.6045 14.4375 44.2021 14.3145 44.8643 14.3145C45.5322 14.3145 46.1328 14.4375 46.666 14.6836C47.2051 14.9238 47.6621 15.2637 48.0371 15.7031C48.418 16.1367 48.708 16.6494 48.9072 17.2412C49.1064 17.8271 49.2061 18.4629 49.2061 19.1484V19.3506C49.2061 20.0361 49.1064 20.6719 48.9072 21.2578C48.708 21.8438 48.418 22.3564 48.0371 22.7959C47.6621 23.2295 47.208 23.5693 46.6748 23.8154C46.1475 24.0557 45.5498 24.1758 44.8818 24.1758C44.2139 24.1758 43.6133 24.0557 43.0801 23.8154C42.5469 23.5693 42.0898 23.2295 41.709 22.7959C41.334 22.3564 41.0469 21.8438 40.8477 21.2578C40.6484 20.6719 40.5488 20.0361 40.5488 19.3506ZM42.1748 19.1484V19.3506C42.1748 19.8252 42.2305 20.2734 42.3418 20.6953C42.4531 21.1113 42.6201 21.4805 42.8428 21.8027C43.0713 22.125 43.3555 22.3799 43.6953 22.5674C44.0352 22.749 44.4307 22.8398 44.8818 22.8398C45.3271 22.8398 45.7168 22.749 46.0508 22.5674C46.3906 22.3799 46.6719 22.125 46.8945 21.8027C47.1172 21.4805 47.2842 21.1113 47.3955 20.6953C47.5127 20.2734 47.5713 19.8252 47.5713 19.3506V19.1484C47.5713 18.6797 47.5127 18.2373 47.3955 17.8213C47.2842 17.3994 47.1143 17.0273 46.8857 16.7051C46.6631 16.377 46.3818 16.1191 46.042 15.9316C45.708 15.7441 45.3154 15.6504 44.8643 15.6504C44.4189 15.6504 44.0264 15.7441 43.6865 15.9316C43.3525 16.1191 43.0713 16.377 42.8428 16.7051C42.6201 17.0273 42.4531 17.3994 42.3418 17.8213C42.2305 18.2373 42.1748 18.6797 42.1748 19.1484ZM56.7822 21.4775C56.7822 21.2432 56.7295 21.0264 56.624 20.8271C56.5244 20.6221 56.3164 20.4375 56 20.2734C55.6895 20.1035 55.2207 19.957 54.5938 19.834C54.0664 19.7227 53.5889 19.5908 53.1611 19.4385C52.7393 19.2861 52.3789 19.1016 52.0801 18.8848C51.7871 18.668 51.5615 18.4131 51.4033 18.1201C51.2451 17.8271 51.166 17.4844 51.166 17.0918C51.166 16.7168 51.248 16.3623 51.4121 16.0283C51.582 15.6943 51.8193 15.3984 52.124 15.1406C52.4346 14.8828 52.8066 14.6807 53.2402 14.5342C53.6738 14.3877 54.1572 14.3145 54.6904 14.3145C55.4521 14.3145 56.1025 14.4492 56.6416 14.7188C57.1807 14.9883 57.5938 15.3486 57.8809 15.7998C58.168 16.2451 58.3115 16.7402 58.3115 17.2852H56.6855C56.6855 17.0215 56.6064 16.7666 56.4482 16.5205C56.2959 16.2686 56.0703 16.0605 55.7715 15.8965C55.4785 15.7324 55.1182 15.6504 54.6904 15.6504C54.2393 15.6504 53.873 15.7207 53.5918 15.8613C53.3164 15.9961 53.1143 16.1689 52.9854 16.3799C52.8623 16.5908 52.8008 16.8135 52.8008 17.0479C52.8008 17.2236 52.8301 17.3818 52.8887 17.5225C52.9531 17.6572 53.0645 17.7832 53.2227 17.9004C53.3809 18.0117 53.6035 18.1172 53.8906 18.2168C54.1777 18.3164 54.5439 18.416 54.9893 18.5156C55.7686 18.6914 56.4102 18.9023 56.9141 19.1484C57.418 19.3945 57.793 19.6963 58.0391 20.0537C58.2852 20.4111 58.4082 20.8447 58.4082 21.3545C58.4082 21.7705 58.3203 22.1514 58.1445 22.4971C57.9746 22.8428 57.7256 23.1416 57.3975 23.3936C57.0752 23.6396 56.6885 23.833 56.2373 23.9736C55.792 24.1084 55.291 24.1758 54.7344 24.1758C53.8965 24.1758 53.1875 24.0264 52.6074 23.7275C52.0273 23.4287 51.5879 23.042 51.2891 22.5674C50.9902 22.0928 50.8408 21.5918 50.8408 21.0645H52.4756C52.499 21.5098 52.6279 21.8643 52.8623 22.1279C53.0967 22.3857 53.3838 22.5703 53.7236 22.6816C54.0635 22.7871 54.4004 22.8398 54.7344 22.8398C55.1797 22.8398 55.5518 22.7812 55.8506 22.6641C56.1553 22.5469 56.3867 22.3857 56.5449 22.1807C56.7031 21.9756 56.7822 21.7412 56.7822 21.4775Z" fill="black"/>
<line x1="90.4238" y1="21.7891" x2="83.3527" y2="14.718" stroke="black"/>
<line x1="89.7168" y1="21.789" x2="96.7878" y2="14.718" stroke="black"/>
</svg>
