<svg width="22" height="23" viewBox="0 0 22 23" fill="none" xmlns="http://www.w3.org/2000/svg">
<path d="M13.7817 6.51562C13.7817 6.51562 14.2817 7.01562 14.7817 8.01562C14.7817 8.01562 16.3699 5.51562 17.7817 5.01562" stroke="#2980B9" stroke-width="1.5" stroke-linecap="round" stroke-linejoin="round"/>
<path d="M8.79612 1.5214C6.29765 1.41562 4.36739 1.70344 4.36739 1.70344C3.14854 1.79059 0.81273 2.47391 0.81275 6.4646C0.81277 10.4214 0.78691 15.2994 0.81275 17.244C0.81275 18.4321 1.54837 21.2034 4.09453 21.3519C7.18937 21.5325 12.764 21.5709 15.3217 21.3519C16.0064 21.3133 18.2859 20.7758 18.5744 18.2957C18.8733 15.7264 18.8138 13.9408 18.8138 13.5158" stroke="#2980B9" stroke-width="1.5" stroke-linecap="round" stroke-linejoin="round"/>
<path d="M20.8011 6.51562C20.8011 9.27705 18.5604 11.5157 15.7963 11.5157C13.0322 11.5157 10.7915 9.27705 10.7915 6.51562C10.7915 3.7542 13.0322 1.51562 15.7963 1.51562C18.5604 1.51562 20.8011 3.7542 20.8011 6.51562Z" stroke="#2980B9" stroke-width="1.5" stroke-linecap="round"/>
<path d="M5.78174 12.5156H9.78171" stroke="#2980B9" stroke-width="1.5" stroke-linecap="round"/>
<path d="M5.78174 16.5156H13.7817" stroke="#2980B9" stroke-width="1.5" stroke-linecap="round"/>
</svg>
